<?xml version="1.0" encoding="UTF-8"?>
<svg version="1.1" xmlns="http://www.w3.org/2000/svg" width="512" height="512">
<path d="M0 0 C0.6688623 0.23605957 1.33772461 0.47211914 2.02685547 0.71533203 C12.51235659 4.5645657 21.26894401 10.09841246 30 17 C30.83144531 17.64710937 31.66289062 18.29421875 32.51953125 18.9609375 C48.18988451 31.96925177 60.35751048 53.07077948 62.75 73.3125 C62.8325 74.529375 62.915 75.74625 63 77 C63.67160156 77.23847656 64.34320313 77.47695312 65.03515625 77.72265625 C96.12696156 91.11793996 129.98970686 124.65416347 143.21484375 155.8671875 C143.47394531 156.57101563 143.73304688 157.27484375 144 158 C145.175625 158.061875 146.35125 158.12375 147.5625 158.1875 C164.47149424 160.14566209 180.36904788 168.96761758 193 180 C193.67160156 180.52851563 194.34320313 181.05703125 195.03515625 181.6015625 C211.68270688 195.03875048 221.97375854 217.10828722 225 238 C226.83465797 268.90576246 220.93617374 293.41513788 200.75 317.1875 C186.14950813 332.74457582 165.48992474 344.54305595 144 346 C143.76152344 346.67160156 143.52304687 347.34320313 143.27734375 348.03515625 C129.88206004 379.12696156 96.34583653 412.98970686 65.1328125 426.21484375 C64.42898438 426.47394531 63.72515625 426.73304688 63 427 C62.938125 428.175625 62.87625 429.35125 62.8125 430.5625 C60.85091368 447.50106292 52.0150749 463.32799646 41 476 C40.5565625 476.58652344 40.113125 477.17304688 39.65625 477.77734375 C26.63212111 494.65312051 3.68675042 505.00344809 -17 508 C-47.40183128 509.80474312 -72.4044127 504.09262487 -95.86791992 483.81469727 C-111.78840165 469.51674087 -123.54274669 448.49448631 -125 427 C-126.00740234 426.64228516 -126.00740234 426.64228516 -127.03515625 426.27734375 C-158.12696156 412.88206004 -191.98970686 379.34583653 -205.21484375 348.1328125 C-205.47394531 347.42898438 -205.73304688 346.72515625 -206 346 C-207.175625 345.938125 -208.35125 345.87625 -209.5625 345.8125 C-225.79140326 343.93309649 -241.75124235 335.52323822 -254 325 C-254.6496875 324.49339844 -255.299375 323.98679687 -255.96875 323.46484375 C-272.91449798 309.78047981 -284.09276122 287.39878281 -287 266 C-289.16551414 234.91509465 -282.72199948 209.97656109 -262.1875 186.25 C-247.75691717 170.97837093 -227.17006801 159.43525885 -206 158 C-205.76152344 157.32839844 -205.52304688 156.65679687 -205.27734375 155.96484375 C-191.88206004 124.87303844 -158.34583653 91.01029314 -127.1328125 77.78515625 C-126.42898437 77.52605469 -125.72515625 77.26695313 -125 77 C-124.938125 75.824375 -124.87625 74.64875 -124.8125 73.4375 C-122.93667987 57.23953972 -114.54144279 41.20464821 -104 29 C-103.41992188 28.27683594 -102.83984375 27.55367187 -102.2421875 26.80859375 C-78.55848735 -1.68121291 -34.59449288 -12.29653702 0 0 Z M-151 134 C-158.39514584 141.47531002 -164.86939223 149.46256104 -171 158 C-170.07271624 160.43698907 -170.07271624 160.43698907 -166.45703125 161.2265625 C-164.90930756 161.6942115 -163.36109625 162.16024859 -161.8125 162.625 C-138.73049909 169.97124888 -120.44185804 185.61179649 -109 207 C-104.26981317 216.36785747 -100.81061244 225.61432702 -99 236 C-98.773125 237.258125 -98.54625 238.51625 -98.3125 239.8125 C-95.83794527 264.97924806 -101.92364315 291.28688844 -117.97705078 311.2175293 C-131.39382271 327.12505019 -146.54150617 336.30153429 -166 343 C-167.67133899 343.65486501 -169.34021787 344.31637326 -171 345 C-159.85594724 363.47566642 -142.81071382 381.30647976 -124 392 C-123.62875 390.989375 -123.2575 389.97875 -122.875 388.9375 C-122.5965625 388.20660156 -122.318125 387.47570312 -122.03125 386.72265625 C-121.26341914 384.69546644 -120.5167551 382.6602345 -119.78125 380.62109375 C-110.78844863 356.30662541 -93.78451032 337.93231584 -70.24487305 326.98950195 C-46.47746168 316.51471985 -19.65368719 316.19569723 4.52734375 325.49609375 C15.55242709 330.27073614 25.05340284 335.87078298 34 344 C34.63164062 344.55042969 35.26328125 345.10085938 35.9140625 345.66796875 C48.67193314 357.46462995 56.59154684 374.51621861 61 391 C65.00484257 391 66.9303607 389.07076615 69.9375 386.6875 C70.51161621 386.23745605 71.08573242 385.78741211 71.67724609 385.32373047 C86.0575415 373.90234358 98.2966884 360.90535245 109 346 C108.07271624 343.56301093 108.07271624 343.56301093 104.45703125 342.7734375 C102.90930756 342.3057885 101.36109625 341.83975141 99.8125 341.375 C76.73049909 334.02875112 58.44185804 318.38820351 47 297 C42.26981317 287.63214253 38.81061244 278.38567298 37 268 C36.773125 266.741875 36.54625 265.48375 36.3125 264.1875 C33.78856195 238.51851302 40.26752176 212.29238346 56.5625 192 C58.02392185 190.3177521 59.50143334 188.64924521 61 187 C61.55042969 186.36835938 62.10085938 185.73671875 62.66796875 185.0859375 C74.46462995 172.32806686 91.51621861 164.40845316 108 160 C108 155.99515743 106.07076615 154.0696393 103.6875 151.0625 C103.23745605 150.48838379 102.78741211 149.91426758 102.32373047 149.32275391 C90.90234358 134.9424585 77.90535245 122.7033116 63 112 C60.56301093 112.92728376 60.56301093 112.92728376 59.7734375 116.54296875 C59.3057885 118.09069244 58.83975141 119.63890375 58.375 121.1875 C51.02875112 144.26950091 35.38820351 162.55814196 14 174 C4.63214253 178.73018683 -4.61432702 182.18938756 -15 184 C-16.258125 184.226875 -17.51625 184.45375 -18.8125 184.6875 C-44.12580861 187.17646549 -70.38263331 181.05604826 -90.41333008 164.89941406 C-105.13215492 152.40965774 -114.51403828 137.9819131 -121 120 C-121.62358868 118.35363141 -122.24826698 116.70767418 -122.875 115.0625 C-123.24625 114.051875 -123.6175 113.04125 -124 112 C-131.48971495 112 -145.62407645 128.68266962 -151 134 Z " fill="#D5AAEC" transform="translate(287,4)"/>
<path d="M0 0 C0.6688623 0.23605957 1.33772461 0.47211914 2.02685547 0.71533203 C12.51235659 4.5645657 21.26894401 10.09841246 30 17 C31.24716797 17.97066406 31.24716797 17.97066406 32.51953125 18.9609375 C48.18988451 31.96925177 60.35751048 53.07077948 62.75 73.3125 C62.8325 74.529375 62.915 75.74625 63 77 C63.67160156 77.23847656 64.34320313 77.47695312 65.03515625 77.72265625 C96.12696156 91.11793996 129.98970686 124.65416347 143.21484375 155.8671875 C143.47394531 156.57101563 143.73304688 157.27484375 144 158 C145.175625 158.061875 146.35125 158.12375 147.5625 158.1875 C164.47149424 160.14566209 180.36904788 168.96761758 193 180 C193.67160156 180.52851563 194.34320313 181.05703125 195.03515625 181.6015625 C211.68270688 195.03875048 221.97375854 217.10828722 225 238 C226.83465797 268.90576246 220.93617374 293.41513788 200.75 317.1875 C183.83577168 335.2099019 160.49740996 346.10825129 135.8125 347.22265625 C107.50361806 348.02499521 84.32317751 339.08743797 63.109375 320.328125 C45.66080599 303.82272188 36.15574218 279.8952761 34.78125 256.234375 C34.17829576 230.60881964 42.66558842 206.02482406 60 187 C60.62390625 186.29488281 61.2478125 185.58976563 61.890625 184.86328125 C74.13092367 171.77439044 90.90942799 163.57073437 108 159 C97.06904582 140.87762859 80.47729793 123.48899243 62 113 C61.6596875 114.13695313 61.319375 115.27390625 60.96875 116.4453125 C56.2406185 131.71991939 49.78811813 143.9739011 39 156 C38.42636719 156.64453125 37.85273438 157.2890625 37.26171875 157.953125 C20.81402882 175.38218068 -3.17358485 184.84825804 -26.765625 186.21875 C-51.87632491 186.80959 -76.46067006 178.83217005 -95.140625 161.7421875 C-114.00516348 143.65078584 -124.79730143 121.65884107 -126.1953125 95.3203125 C-126.55883997 70.75624199 -120.27986348 47.84846416 -104 29 C-103.41992188 28.27683594 -102.83984375 27.55367187 -102.2421875 26.80859375 C-78.55848735 -1.68121291 -34.59449288 -12.29653702 0 0 Z " fill="#FE92BA" transform="translate(287,4)"/>
<path d="M0 0 C1.70461459 1.48052198 3.39357309 2.97936223 5.0625 4.5 C5.76761719 5.12390625 6.47273437 5.7478125 7.19921875 6.390625 C20.28810956 18.63092367 28.49176563 35.40942799 33.0625 52.5 C48.99789541 42.8881742 62.32850421 29.40277973 73.58203125 14.734375 C74.00613281 14.18869873 74.43023437 13.64302246 74.8671875 13.08081055 C75.9777594 11.61207013 77.01770475 10.09065075 78.05078125 8.56640625 C80.0625 6.5 80.0625 6.5 82.5234375 6.23046875 C83.48507812 6.38128906 84.44671875 6.53210938 85.4375 6.6875 C91.94718608 7.47790862 98.31813621 7.60306552 104.875 7.5625 C105.87257324 7.55822998 106.87014648 7.55395996 107.89794922 7.54956055 C110.28619281 7.53731421 112.67431892 7.52090101 115.0625 7.5 C103.3920396 40.36653983 68.61924187 70.07501392 39.0625 86.5 C37.40968637 87.20030659 35.74703541 87.87986883 34.0625 88.5 C34.000625 89.675625 33.93875 90.85125 33.875 92.0625 C31.91341368 109.00106292 23.0775749 124.82799646 12.0625 137.5 C11.6190625 138.08652344 11.175625 138.67304688 10.71875 139.27734375 C-2.30537889 156.15312051 -25.25074958 166.50344809 -45.9375 169.5 C-76.33933128 171.30474312 -101.3419127 165.59262487 -124.80541992 145.31469727 C-139.92556082 131.7355155 -150.53548236 112.55112572 -153.9375 92.5 C-154.15558314 87.93248001 -154.16567236 83.36472928 -154.17773438 78.79272461 C-154.18733428 76.60034671 -154.21834077 74.40895096 -154.25 72.21679688 C-154.4404827 47.13373655 -145.19231235 25.11199629 -127.734375 7.2421875 C-93.49781827 -26.32493935 -37.87606385 -30.34270308 0 0 Z " fill="#7EC4FE" transform="translate(315.9375,342.5)"/>
<path d="M0 0 C0.6688623 0.23605957 1.33772461 0.47211914 2.02685547 0.71533203 C12.51235659 4.5645657 21.26894401 10.09841246 30 17 C31.24716797 17.97066406 31.24716797 17.97066406 32.51953125 18.9609375 C49.7937866 33.30068712 60.75508615 55.5044311 63.68359375 77.5078125 C66.08962623 104.06328205 60.44375788 130.59583237 43.2109375 151.4765625 C26.23811741 171.05469771 2.99073193 183.80360012 -23 186 C-48.55854161 187.48472856 -74.17854801 180.27691533 -93.6003418 163.15136719 C-113.40367118 145.03362789 -124.76247418 122.31498641 -126.1953125 95.3203125 C-126.55883997 70.75624199 -120.27986348 47.84846416 -104 29 C-103.41992188 28.27683594 -102.83984375 27.55367187 -102.2421875 26.80859375 C-78.55848735 -1.68121291 -34.59449288 -12.29653702 0 0 Z " fill="#FEE076" transform="translate(287,4)"/>
<path d="M0 0 C22.62666347 13.93671301 35.46287136 34.69317583 42 60 C46.72464363 84.74053252 42.60128081 111.09094195 28.75561523 132.23022461 C14.05517545 153.61585684 -6.67250567 168.06684991 -32.05859375 173.67578125 C-56.92952507 178.24010947 -82.79462427 173.87276888 -104.03125 160.07421875 C-112.9320601 153.85536327 -121.63807117 146.90670037 -128 138 C-128 137.34 -128 136.68 -128 136 C-124.45735349 137.36674078 -121.02535023 138.91487471 -117.58203125 140.51318359 C-92.19177058 152.13401615 -63.48385055 151.62204972 -37.4375 142.37890625 C-30.37326879 139.54518623 -24.31255587 136.06922881 -18.32763672 131.38623047 C-17.51720917 130.75296844 -16.70678162 130.11970642 -15.87179565 129.46725464 C-15.25410309 128.98306061 -14.63641052 128.49886658 -14 128 C-15.44033096 127.98786972 -15.44033096 127.98786972 -16.90975952 127.97549438 C-25.94496848 127.89811604 -34.9800253 127.81039813 -44.01503563 127.71247292 C-48.66038381 127.66245931 -53.30570869 127.61612991 -57.95117188 127.578125 C-62.43164384 127.54133592 -66.91192316 127.49499376 -71.39223099 127.44193649 C-73.104271 127.42335851 -74.81635236 127.40826322 -76.52845383 127.39665604 C-78.92070122 127.37985148 -81.31250412 127.35083148 -83.70458984 127.31884766 C-84.77381432 127.31560738 -84.77381432 127.31560738 -85.86463928 127.31230164 C-90.77189568 127.22810432 -90.77189568 127.22810432 -93 125 C-94.059979 116.69683114 -90.65721596 108.8303857 -85.75 102.25 C-79.79712443 95.16987778 -73.78257728 90.09333253 -65 87 C-64.04673828 86.66162109 -64.04673828 86.66162109 -63.07421875 86.31640625 C-51.90858533 82.9644045 -41.33421607 85.02067666 -31 90 C-19.12330308 97.30749019 -12.83600748 108.061114 -9.3984375 121.3203125 C-9.26695312 121.87460937 -9.13546875 122.42890625 -9 123 C10.1838087 100.47771031 17.94642915 74.29762776 16 45 C14.72798794 30.22680726 10.02467581 15.51856224 1.06640625 3.56640625 C0 2 0 2 0 0 Z " fill="#FD76A8" transform="translate(469,176)"/>
<path d="M0 0 C19.72591754 12.31121095 34.17188249 31.32251621 40.29296875 53.90625 C46.37968085 80.53981898 43.08007247 108.11583338 28.73095703 131.55639648 C14.22849619 153.96956057 -8.60997923 167.99239582 -34.3359375 173.74609375 C-59.46070253 178.24373687 -84.54748209 172.55272138 -106 159 C-114.13733343 153.26567999 -125.82014033 144.539579 -129 135 C-125.1790169 136.47612841 -121.50641836 138.16927842 -117.8125 139.9375 C-112.29188219 142.50131234 -106.87100751 144.44199801 -101 146 C-100.04351562 146.350625 -99.08703125 146.70125 -98.1015625 147.0625 C-92.16509879 148.75680918 -85.86457064 148.28709547 -79.75 148.25 C-78.49058594 148.25773438 -77.23117188 148.26546875 -75.93359375 148.2734375 C-50.49152833 148.22059832 -28.22841968 138.56456221 -10 121 C-8.96017695 119.69748481 -7.93998944 118.37629853 -7 117 C-9.93949631 118.40007612 -12.59096522 120.03104632 -15.3125 121.8125 C-30.49804042 131.00493396 -51.1660041 134.15762579 -68.5078125 130.09375 C-81.35919386 126.49560593 -93.50597253 120.49402747 -103 111 C-103.33954407 107.99260964 -103.56172736 105.90034738 -103 103 C-100.65350174 100.31828771 -99.19408558 99.16463306 -95.6484375 98.67578125 C-92.14870536 99.10421454 -90.55382352 100.49687072 -87.8125 102.6875 C-75.20049288 112.2308102 -61.89716481 116.47413119 -46 115 C-34.2877298 113.2592613 -22.38310745 109.27410677 -13.625 101 C-11 99 -11 99 -7.375 98.875 C-2.80190558 100.39936481 -1.10642809 102.78714382 1 107 C15.08099627 82.36699164 19.81439336 56.79983285 13 29 C10.48264444 20.58555977 6.58078681 12.7619929 2.19921875 5.171875 C1 3 1 3 0 0 Z " fill="#FED15B" transform="translate(308,15)"/>
<path d="M0 0 C2.3359375 2.01953125 2.3359375 2.01953125 4.375 4.8125 C5.13683594 5.81796875 5.89867187 6.8234375 6.68359375 7.859375 C7.44800781 8.89578125 8.21242187 9.9321875 9 11 C18.29041462 22.8211954 28.35387043 32.64113137 40.3059082 41.69482422 C40.8649585 42.12553223 41.42400879 42.55624023 42 43 C42.8854248 43.54446777 43.77084961 44.08893555 44.68310547 44.64990234 C47 47 47 47 47.47583008 50.66699219 C47.43328263 52.1279523 47.3628896 53.58828014 47.26953125 55.046875 C47.22562508 56.20367767 47.22562508 56.20367767 47.18083191 57.3838501 C47.08205505 59.84096133 46.94778667 62.29465499 46.8125 64.75 C46.73918893 66.41786722 46.66819824 68.08583816 46.59960938 69.75390625 C46.4266173 73.83762805 46.22178504 77.91864909 46 82 C13.00479798 69.34212956 -16.23672311 36.16549575 -33 6 C-33.70030659 4.34718637 -34.37986883 2.68453541 -35 1 C-34.15405273 1.00785522 -34.15405273 1.00785522 -33.29101562 1.01586914 C-30.69402211 1.03687267 -28.09704656 1.04973362 -25.5 1.0625 C-24.1696875 1.07506836 -24.1696875 1.07506836 -22.8125 1.08789062 C-18.75570008 1.10280533 -14.80432169 1.04654782 -10.78125 0.49609375 C-7.03868137 0.00507493 -3.75751336 -0.41700327 0 0 Z " fill="#E9F5FE" transform="translate(116,349)"/>
<path d="M0 0 C32.86653983 11.6704604 62.57501392 46.44325813 79 76 C79.68124801 77.66075988 80.35030505 79.32664448 81 81 C76.18285378 81.41793292 71.36830975 81.75858115 66.54077148 82.03149414 C64.90327543 82.13457364 63.26691548 82.25792198 61.63256836 82.40258789 C48.07638975 83.58156589 48.07638975 83.58156589 43.01879883 79.72924805 C40.7243508 76.9285988 38.83716284 74.11535506 37 71 C36.19113848 69.93896143 35.36462525 68.89051644 34.50390625 67.87109375 C33.86324219 67.06800781 33.22257812 66.26492187 32.5625 65.4375 C25.00517648 56.25144296 16.61206056 48.64771537 7.19921875 41.4453125 C6.65982666 41.02677002 6.12043457 40.60822754 5.56469727 40.17700195 C4.1063252 39.0799803 2.58966581 38.06165765 1.0703125 37.05078125 C-1 35 -1 35 -1.26953125 32.28515625 C-1.11871094 31.22167969 -0.96789062 30.15820312 -0.8125 29.0625 C-0.08178056 22.54806727 0.10516576 16.1805659 0.0625 9.625 C0.05609497 8.20586304 0.05609497 8.20586304 0.04956055 6.75805664 C0.03734547 4.50530647 0.02095969 2.2526831 0 0 Z " fill="#EAF5FE" transform="translate(350,81)"/>
<path d="M0 0 C-0.00785522 0.96039185 -0.00785522 0.96039185 -0.01586914 1.94018555 C-0.03672429 4.85594695 -0.04968729 7.77169262 -0.0625 10.6875 C-0.07506836 12.19860352 -0.07506836 12.19860352 -0.08789062 13.74023438 C-0.09272461 15.20493164 -0.09272461 15.20493164 -0.09765625 16.69921875 C-0.10551147 18.04246216 -0.10551147 18.04246216 -0.11352539 19.4128418 C0.00209513 22.04774651 0.42167778 24.43005617 1 27 C2 32 2 32 1 35 C-2.28744743 38.49873895 -6.12537241 41.18559389 -10 44 C-21.30160574 52.86645312 -30.84269845 62.41505675 -39.5546875 73.80078125 C-39.97250488 74.34017334 -40.39032227 74.87956543 -40.82080078 75.43530273 C-41.92342531 76.89839188 -42.95696206 78.41283769 -43.984375 79.9296875 C-46 82 -46 82 -48.4609375 82.26953125 C-49.90339844 82.04330078 -49.90339844 82.04330078 -51.375 81.8125 C-57.88468608 81.02209138 -64.25563621 80.89693448 -70.8125 80.9375 C-71.81007324 80.94177002 -72.80764648 80.94604004 -73.83544922 80.95043945 C-76.22369281 80.96268579 -78.61181892 80.97909899 -81 81 C-69.05686246 47.36554239 -34.46987813 19.60251703 -5 2 C-2 0 -2 0 0 0 Z " fill="#EAF6FE" transform="translate(162,81)"/>
<path d="M0 0 C1.44246094 0.22623047 1.44246094 0.22623047 2.9140625 0.45703125 C9.42374858 1.24743987 15.79469871 1.37259677 22.3515625 1.33203125 C23.34913574 1.32776123 24.34670898 1.32349121 25.37451172 1.3190918 C27.76275531 1.30684546 30.15088142 1.29043226 32.5390625 1.26953125 C20.8686021 34.13607108 -13.90419563 63.84454517 -43.4609375 80.26953125 C-45.11375113 80.96983784 -46.77640209 81.64940008 -48.4609375 82.26953125 C-48.45570068 81.67116455 -48.45046387 81.07279785 -48.44506836 80.45629883 C-48.43153869 78.67295191 -48.42106013 76.88958047 -48.4128418 75.10620117 C-48.40319845 73.08158827 -48.38768738 71.05699524 -48.36645508 69.0324707 C-48.32581562 62.60248107 -48.32581562 62.60248107 -49.0703125 56.23046875 C-49.64147258 52.99646775 -50.02196091 50.50838067 -49.4609375 47.26953125 C-46.35548341 43.43481201 -42.5471082 40.97856693 -38.4609375 38.26953125 C-27.12500695 29.46659484 -17.60639993 19.83900191 -8.90625 8.46875 C-8.48843262 7.92935791 -8.07061523 7.38996582 -7.64013672 6.83422852 C-6.53751219 5.37113937 -5.50397544 3.85669356 -4.4765625 2.33984375 C-2.4609375 0.26953125 -2.4609375 0.26953125 0 0 Z " fill="#EAF6FE" transform="translate(398.4609375,348.73046875)"/>
<path d="M0 0 C8.36331782 6.25662471 15.17615822 14.78195843 17.13671875 25.23828125 C17.34140885 28.29002459 17.28264271 31.17387814 17.13671875 34.23828125 C14.1413288 35.73597622 11.06625099 35.38561539 7.78125 35.38354492 C7.02339203 35.38690353 6.26553406 35.39026215 5.48471069 35.39372253 C2.9728635 35.40324252 0.46108287 35.40517605 -2.05078125 35.40625 C-3.79191109 35.40946141 -5.53304066 35.41282539 -7.27416992 35.41633606 C-10.92595038 35.42232964 -14.57770716 35.42417568 -18.22949219 35.42358398 C-22.91733424 35.42348225 -27.60502522 35.43714532 -32.29283142 35.45435619 C-35.88896386 35.46545293 -39.48505947 35.46750393 -43.08120728 35.46697426 C-44.81003338 35.46815748 -46.53886035 35.47259827 -48.26766968 35.48030663 C-50.68115963 35.49006152 -53.09431765 35.4872467 -55.5078125 35.48120117 C-56.58634995 35.48963043 -56.58634995 35.48963043 -57.68667603 35.49822998 C-62.6349642 35.4665983 -62.6349642 35.4665983 -64.86328125 33.23828125 C-65.92326025 24.93511239 -62.52049721 17.06866695 -57.61328125 10.48828125 C-51.66040568 3.40815903 -45.64585853 -1.66838622 -36.86328125 -4.76171875 C-36.22777344 -4.98730469 -35.59226562 -5.21289062 -34.9375 -5.4453125 C-22.81669482 -9.08406354 -10.65178209 -6.553825 0 0 Z " fill="#FE5694" transform="translate(440.86328125,267.76171875)"/>
<path d="M0 0 C2.54296875 1.57421875 2.54296875 1.57421875 5.1875 3.6875 C17.79950712 13.2308102 31.10283519 17.47413119 47 16 C58.7122702 14.2592613 70.61689255 10.27410677 79.375 2 C82 0 82 0 85.6875 0 C90.56828528 1.47344461 90.56828528 1.47344461 92 4 C92.62323502 8.12893198 92.40151229 10.3010712 90.3125 13.9375 C79.16519778 25.64842986 60.74262989 31.52762239 44.9921875 32.37109375 C25.00012165 32.84649715 7.33983846 27.34497158 -8 14 C-10 12 -10 12 -10.4375 8.125 C-10.35148262 4.74574582 -10.15947554 4.18225775 -7.8125 1.5 C-4.69962273 -0.16020121 -3.45716072 -0.42322174 0 0 Z " fill="#FFC344" transform="translate(215,114)"/>
<path d="M0 0 C0.66569504 -0.0071553 1.33139008 -0.01431061 2.01725769 -0.02168274 C4.20687538 -0.03852341 6.39443185 -0.0191985 8.58398438 0.00219727 C10.11185881 0.00136812 11.63973316 -0.00109299 13.16760254 -0.00511169 C16.36542703 -0.00796648 19.56254987 0.00669894 22.76025391 0.03417969 C26.85279724 0.06826302 30.94408637 0.06224185 35.03668976 0.04351711 C38.19039302 0.03293249 41.34380601 0.04189799 44.4974823 0.05690193 C46.00611 0.06207354 47.51476814 0.06161433 49.02339172 0.05535698 C51.13474361 0.0498866 53.24431947 0.0703333 55.35546875 0.09765625 C56.55506226 0.10385483 57.75465576 0.11005341 58.99060059 0.11643982 C62.79044319 0.73004476 64.4661371 1.94957294 67.17773438 4.63110352 C67.84179688 6.63110352 67.84179688 6.63110352 67.80273438 8.63110352 C67.82207031 9.62110352 67.82207031 9.62110352 67.84179688 10.63110352 C66.79946176 13.77037162 64.8975161 14.83197993 62.17773438 16.63110352 C58.99060059 17.14576721 58.99060059 17.14576721 55.35546875 17.16455078 C54.68977371 17.17316635 54.02407867 17.18178192 53.33821106 17.19065857 C51.1489009 17.2132673 48.96087601 17.20659075 46.77148438 17.19750977 C45.2436078 17.20274736 43.71573447 17.20902434 42.18786621 17.21629333 C38.99016066 17.22668779 35.79290038 17.22214978 32.59521484 17.20751953 C28.50254971 17.19032474 24.41128761 17.21383853 20.31877899 17.24900913 C17.16508732 17.27099537 14.01173084 17.26953901 10.85798645 17.26124382 C9.34933431 17.26042511 7.84065737 17.26727337 6.33207703 17.28201485 C4.22051327 17.29948772 2.11146374 17.28490236 0 17.26220703 C-1.19959351 17.26124527 -2.39918701 17.26028351 -3.63513184 17.2592926 C-7.74779307 16.4486806 -9.24111239 14.86636292 -11.82226562 11.63110352 C-12.44726562 8.63110352 -12.44726562 8.63110352 -11.82226562 5.63110352 C-8.14675812 1.02416269 -5.83918936 0.00468151 0 0 Z " fill="#BD81E1" transform="translate(66.822265625,275.368896484375)"/>
<path d="M0 0 C0.80066895 0.14848389 1.60133789 0.29696777 2.42626953 0.44995117 C9.15044233 1.8995541 15.22392405 4.46088607 19.125 10.3125 C18.93357613 13.37528197 18.74095124 15.51736294 16.8359375 17.9765625 C14.13890581 20.08246396 11.83859434 19.71524845 8.52734375 19.61328125 C5.50652567 19.235065 2.99758183 18.33388764 0.2421875 17.06640625 C-13.23794391 12.26628565 -33.54962891 13.6618732 -46.875 18.3125 C-47.535 18.6425 -48.195 18.9725 -48.875 19.3125 C-51.81032227 19.59656345 -54.02509878 19.80715741 -56.875 19.3125 C-59.4375 17.1875 -59.4375 17.1875 -60.875 14.3125 C-60.9375 11.25 -60.9375 11.25 -59.875 8.3125 C-55.96993313 4.51058584 -52.03926998 3.09821306 -46.9375 1.625 C-46.24720703 1.41294922 -45.55691406 1.20089844 -44.84570312 0.98242188 C-30.42748001 -3.34987834 -14.68702954 -2.84090147 0 0 Z " fill="#28A6FE" transform="translate(276.875,453.6875)"/>
<path d="M0 0 C0.99 0.82371094 1.98 1.64742188 3 2.49609375 C7.7326128 6.00205622 12.49174219 5.63421597 18.1875 5.5625 C28.25071073 5.47682761 28.25071073 5.47682761 31.640625 7.84375 C33.53946506 10.8557032 33.64236226 12.50269434 33 16 C31.125 18.875 31.125 18.875 28 21 C24.62352309 21.4072392 21.3825236 21.29556031 18 21 C18.05800781 22.24136719 18.11601562 23.48273438 18.17578125 24.76171875 C18.22269238 26.40360814 18.26819109 28.04553832 18.3125 29.6875 C18.35439453 30.50412109 18.39628906 31.32074219 18.43945312 32.16210938 C18.52867283 36.56956298 18.44164447 38.41489619 15.703125 42.04296875 C13 44 13 44 9.4375 44.625 C6 44 6 44 3.80078125 42.0546875 C0.96290998 37.24077137 1.62064857 32.41263736 1.86328125 26.94921875 C1.85929742 24.41948864 1.7786914 22.41134118 1 20 C-0.89309821 18.23360416 -2.71201115 17.14149304 -5.02612305 15.99169922 C-7.97002938 14.51264572 -9.42759914 12.8713407 -11 10 C-11 6.1862249 -10.84985071 3.97575452 -8.3125 1.0625 C-5.17558807 -0.37878386 -3.43321394 -0.53854336 0 0 Z " fill="#28A6FD" transform="translate(273,391)"/>
<path d="M0 0 C3.25 0.375 3.25 0.375 6.1875 2.4375 C8.25 5.375 8.25 5.375 8.5 8.8125 C6.88476579 13.41591749 4.4419737 15.91592882 0.25 18.375 C-2.484375 19.0390625 -2.484375 19.0390625 -4.75 19.375 C-4.72381592 19.95467529 -4.69763184 20.53435059 -4.6706543 21.1315918 C-4.56629388 23.77494875 -4.50155673 26.41787199 -4.4375 29.0625 C-4.39560547 29.97451172 -4.35371094 30.88652344 -4.31054688 31.82617188 C-4.22578363 36.48815038 -4.20600591 38.65058575 -7.08203125 42.48046875 C-9.75 44.375 -9.75 44.375 -12.75 45 C-16.89221298 44.13703896 -18.18201468 42.72585522 -20.75 39.375 C-21.34837976 36.24389225 -21.22528279 33.23551232 -21.0625 30.0625 C-21.03994141 29.22654297 -21.01738281 28.39058594 -20.99414062 27.52929688 C-20.9355061 25.47708851 -20.84583215 23.42580798 -20.75 21.375 C-21.49765625 21.43300781 -22.2453125 21.49101562 -23.015625 21.55078125 C-31.06152433 21.91937611 -31.06152433 21.91937611 -34.4375 19.25 C-35.96751965 15.89852838 -36.3691438 14.01246981 -35.75 10.375 C-34.36328125 8.22265625 -34.36328125 8.22265625 -31.75 6.375 C-27.40985647 5.68366258 -23.01823939 5.86839064 -18.63476562 5.88671875 C-10.80661379 5.76431694 -6.7721537 0.9234755 0 0 Z " fill="#28A6FD" transform="translate(241.75,390.625)"/>
<path d="M0 0 C3.5 0.8125 3.5 0.8125 5.4375 1.9375 C7.19937187 5.04668565 6.98159369 7.32094577 6.5 10.8125 C3.22401437 15.08120855 -0.78094047 17.4084508 -5.5 19.8125 C-6.16 19.8125 -6.82 19.8125 -7.5 19.8125 C-7.47381592 20.39217529 -7.44763184 20.97185059 -7.4206543 21.5690918 C-7.31629388 24.21244875 -7.25155673 26.85537199 -7.1875 29.5 C-7.14560547 30.41201172 -7.10371094 31.32402344 -7.06054688 32.26367188 C-6.97580949 36.9242279 -6.9586526 39.08949239 -9.828125 42.921875 C-12.5 44.8125 -12.5 44.8125 -15.5625 45.375 C-19.25946219 44.66707107 -20.2537324 43.81550594 -22.5 40.8125 C-22.7911521 38.07567029 -22.88322418 35.77309961 -22.75 33.0625 C-22.73195313 32.36511719 -22.71390625 31.66773438 -22.6953125 30.94921875 C-22.64838554 29.23638461 -22.57664605 27.52426176 -22.5 25.8125 C-23.63888672 25.86470703 -23.63888672 25.86470703 -24.80078125 25.91796875 C-25.79464844 25.94503906 -26.78851563 25.97210938 -27.8125 26 C-28.79863281 26.03480469 -29.78476562 26.06960937 -30.80078125 26.10546875 C-33.5 25.8125 -33.5 25.8125 -35.328125 24.546875 C-36.97337146 22.11191023 -36.91301426 19.72220645 -36.99609375 16.84765625 C-36.25985497 13.82733812 -34.94605285 12.69624185 -32.5 10.8125 C-29.46875 9.9765625 -29.46875 9.9765625 -26 9.4375 C-17.53324872 7.83616042 -7.88557292 -0.42244141 0 0 Z " fill="#FE5694" transform="translate(459.5,205.1875)"/>
<path d="M0 0 C4.30483659 0.9930828 7.58336832 2.62954684 11.41796875 4.75 C17.58265851 8.02384191 23.27803527 10.04879404 30.21875 11.20703125 C33.03112448 11.93679762 34.11598006 12.52721584 35.79296875 14.875 C36.27554966 18.66670715 36.3117592 20.95532602 34.41796875 24.3125 C30.37557127 26.71868898 26.3841736 26.19042629 21.79296875 25.875 C21.839375 26.82761719 21.88578125 27.78023437 21.93359375 28.76171875 C21.98773438 30.64310547 21.98773438 30.64310547 22.04296875 32.5625 C22.089375 33.80386719 22.13578125 35.04523438 22.18359375 36.32421875 C21.72839495 40.46197586 20.79556602 42.04276286 17.79296875 44.875 C13.99569738 45.48527576 11.8544316 45.55576151 8.58203125 43.45703125 C5.83505435 39.49250782 6.54094318 35.69319404 6.66796875 31 C6.79312061 24.15836575 6.79312061 24.15836575 3.65625 18.40234375 C1.0835817 16.9939487 -1.47343707 15.92671668 -4.20703125 14.875 C-6.84175683 12.30300598 -7.97010816 10.92799151 -8.76953125 7.375 C-7.67493551 2.51013006 -5.04369801 -0.1965875 0 0 Z " fill="#FE5694" transform="translate(376.20703125,205.125)"/>
<path d="M0 0 C2.58455859 1.65442246 3.57351835 2.37551217 5 5 C5.75857301 9.50758544 5.69708734 13.93927422 5.625 18.5 C5.65400391 20.33498047 5.65400391 20.33498047 5.68359375 22.20703125 C5.62918523 32.16379055 5.62918523 32.16379055 2.65234375 35.30859375 C-0.6048624 37.38572227 -2.20862721 37.72600756 -6 37 C-8.30275556 35.1329009 -9.67823871 33.64352259 -11 31 C-11.32451599 26.73569552 -11.32451551 22.46261803 -11.375 18.1875 C-11.41238281 16.99833984 -11.44976562 15.80917969 -11.48828125 14.58398438 C-11.58729425 4.78719761 -11.58729425 4.78719761 -8.6640625 1.71484375 C-5.3620077 -0.41067246 -3.85107894 -0.80230811 0 0 Z " fill="#FFC446" transform="translate(232,54)"/>
<path d="M0 0 C2.56361373 1.66013752 3.5800737 2.39112743 5 5 C5.67927649 9.36513638 5.56024298 13.65578634 5.4375 18.0625 C5.43169922 19.24650391 5.42589844 20.43050781 5.41992188 21.65039062 C5.27953337 31.56181935 5.27953337 31.56181935 3 35 C-0.51824511 37.34549674 -1.85775694 37.57991403 -6 37 C-8.60518084 35.34877508 -9.57515901 34.64143599 -11 32 C-11.75764701 27.49219259 -11.69708892 23.0608256 -11.625 18.5 C-11.64433594 17.27667969 -11.66367187 16.05335937 -11.68359375 14.79296875 C-11.62918508 4.83618289 -11.62918508 4.83618289 -8.6484375 1.6953125 C-5.35462515 -0.41311605 -3.83589763 -0.79914534 0 0 Z " fill="#FFC445" transform="translate(286,54)"/>
<path d="M0 0 C1.22332031 -0.01095703 2.44664062 -0.02191406 3.70703125 -0.03320312 C14.04920103 0.05156876 14.04920103 0.05156876 18.5 4.5625 C19.25398059 8.70939327 19.05852836 10.69311648 16.7734375 14.25 C12.44768627 18.30818694 6.0258383 17.23709211 0.5 17.125 C-0.675625 17.13595703 -1.85125 17.14691406 -3.0625 17.15820312 C-12.95576581 17.07388552 -12.95576581 17.07388552 -17.5 12.5625 C-18.625 9.125 -18.625 9.125 -18.5 5.5625 C-14.20667483 -1.37132093 -7.44220142 -0.1450798 0 0 Z " fill="#BD81E1" transform="translate(129.5,227.4375)"/>
<path d="M0 0 C1.175625 -0.00257813 2.35125 -0.00515625 3.5625 -0.0078125 C13.34361931 0.10333658 13.34361931 0.10333658 18 3.5 C19.42041821 6.34083641 19.31452272 8.35477278 19 11.5 C17.1329009 13.80275556 15.64352259 15.17823871 13 16.5 C8.87999208 16.74343642 4.75139093 16.68520245 0.625 16.6875 C-0.52484375 16.69974609 -1.6746875 16.71199219 -2.859375 16.72460938 C-3.96539062 16.72654297 -5.07140625 16.72847656 -6.2109375 16.73046875 C-7.22462402 16.73457764 -8.23831055 16.73868652 -9.28271484 16.74291992 C-12.08794326 16.49213805 -13.66790888 16.0516059 -16 14.5 C-18.34549674 10.98175489 -18.57991403 9.64224306 -18 5.5 C-13.64236779 -1.26971565 -7.41795187 -0.17894182 0 0 Z " fill="#BD81E1" transform="translate(59,227.5)"/>
</svg>
